# xmcd CD database file
#
# Track frame offsets:
#	150
#	21912
#	41498
#	57860
#	83357
#	126088
#	155476
#	164646
#	220623
#	281276
#
# Disc length: 4485 seconds
#
# Revision: 0
# Processed by: cddbd v1.5PL3 Copyright (c) Steve Scherf et al.
# Submitted via: CDex 1.51
#
DISCID=7b11830a
DTITLE=Jon Hiseman, Chris Farlowe, Dick Heckstall-Smith, Dave Greenslade, Mark Clarke - COLOSSEUM, The Reunion Concerts 1994 LIVES
DYEAR=1995
DGENRE=Blues
TTITLE0=Those About To Die
TTITLE1=Elegy
TTITLE2=The Valentyne Suite - January's Search
TTITLE3=The Valentyne Suite - February's Valentyne
TTITLE4=The Valentine Suite - The Grass Is Always Greener
TTITLE5=Theme For An Imaginary Western
TTITLE6=The Machine Demands Another Sacrifice
TTITLE7=Solo Colonia
TTITLE8=Lost Angeles
TTITLE9=Stormy Monday Blues
EXTD=YEAR: 1995
EXTT0=
EXTT1=
EXTT2=
EXTT3=
EXTT4=
EXTT5=
EXTT6=
EXTT7=
EXTT8=
EXTT9=
PLAYORDER=
